<?xml version="1.0" encoding="UTF-8"?><svg id="Layer_1" xmlns="http://www.w3.org/2000/svg" viewBox="0 0 64 64"><g><polygon points="7.05 50.95 32.34 26 31.63 21.84 30.77 21.22 19.3 33.87 27.74 19.05 26.83 18.39 22.73 19.1 7.05 50.95"/><polygon points="29.91 19.09 35.76 23.29 36.42 20.31 33.38 18.13 39.21 10 38.59 7 35.6 7.41 29.77 15.54 26.81 13.41 24.23 15.01 25.17 15.69 29.91 19.09"/></g><g><polygon points="26.3 60.41 48.99 33.08 47.88 29.01 46.95 28.48 36.8 42.21 43.73 26.62 42.75 26.05 38.74 27.16 26.3 60.41"/><polygon points="45.89 26.44 52.13 30.04 52.49 27.01 49.25 25.14 54.24 16.48 53.33 13.56 50.39 14.26 45.4 22.92 42.24 21.1 39.83 22.95 40.84 23.53 45.89 26.44"/></g></svg>