<?xml version="1.0" encoding="UTF-8"?><svg id="Layer_2" xmlns="http://www.w3.org/2000/svg" viewBox="0 0 64 64"><path d="M26.22,30.71l-7.1-7.1c4.35-2.57,9.85-2.68,14.58-.38l4.41-4.41c-7.33-4.43-16.53-4.32-23.34,.45l-1.28-1.28-4.24,4.24,12.73,12.73,4.24-4.24Z"/><polygon points="39.66 13.03 43.9 17.27 22.69 38.49 17.74 37.78 9.96 45.56 16.59 47.41 18.44 54.04 26.22 46.26 25.51 41.31 46.73 20.1 50.97 24.34 53.8 10.2 39.66 13.03"/><path d="M45.19,25.88l-4.41,4.41c2.3,4.73,2.19,10.23-.38,14.58l-7.1-7.1-4.24,4.24,12.73,12.73,4.24-4.24-1.28-1.28c4.77-6.81,4.88-16.01,.45-23.34Z"/></svg>