<?xml version="1.0" encoding="UTF-8"?><svg id="Layer_6" xmlns="http://www.w3.org/2000/svg" viewBox="0 0 64 64"><path d="M50.5,12c-1.7,6.79-14.21,7.1-17.33,7.03-.22,0-.44-.03-.67-.03-6.49,0-12.01,4.13-14.09,9.91,3.13-1.05,8.08-1.91,17.59-1.91v3c-11.31,0-15.71,1.21-18.41,2.46,0,.07-.02,.13-.03,.2-1.06,.55-2.14,1.27-3.18,2.23-3.91,3.64-5.89,9.39-5.89,17.11h4c0-6.52,1.54-11.27,4.57-14.13,.26-.24,.52-.46,.78-.66,1.47,6.74,7.47,11.8,14.65,11.8,.38,0,.78-.02,1.18-.06,1.68-.13,3.28-.53,4.76-1.17,9.13-3.63,18.59-15.37,12.06-35.77Z"/></svg>