<?xml version="1.0" encoding="UTF-8"?><svg id="Layer_5" xmlns="http://www.w3.org/2000/svg" viewBox="0 0 64 64"><path d="M43.24,22.73c.45,2.5,1.22,6.03,1.45,9.01-1.49-1.2-6.74-6.6-10.83-12.51,0-.07,.01-.16,.02-.23-.06,0-.12,0-.18,0-2.61-3.81-4.71-7.8-4.98-11-7.24,5.26-5.35,17.27-2.71,25.97-2.83-.57-8.12-2.61-7.37-9.37-3.21,3.33-5.19,7.86-5.19,12.85,0,10.24,8.3,18.55,18.55,18.55s18.55-8.3,18.55-18.55c0-6.01-2.87-11.34-7.3-14.72Zm-7.97,25.63c-5.65-.48-8.57-3.41-7.64-3.27,3.53,.5,8.51-6.65,8.73-13.09,1.92,4.55,8.73,8.73,8.73,8.73,0,0-3.59,8.17-9.82,7.64Z"/></svg>