
<svg id="Layer_7" xmlns="http://www.w3.org/2000/svg" viewBox="0 0 64 64">
    <g id="base"><rect x="10.79" y="10.79" width="42.43" height="42.43" transform="translate(-13.25 32) rotate(-45)"/></g>
    <g id="jungle">
        <polygon class="cls-3" points="37 16.9 37 47.1 52.1 32 37 16.9"/>
        <polygon class="cls-3" points="27 47.1 27 16.9 11.9 32 27 47.1"/>
    </g>
    <polygon id="adc" class="cls-4" points="32 52.1 32 62 62 32 52.1 32 32 52.1"/>
    <polygon id="support" class="cls-5" points="32 11.9 52.1 32 62 32 32 2 32 11.9"/>
    <polygon id="solo" class="cls-2" points="11.9 32 32 11.9 32 2 2 32 32 62 32 52.1 11.9 32"/>
    <polygon id="mid" class="cls-1" points="27 7 27 57 32 62 37 57 37 7 32 2 27 7"/>
</svg>